<svg xmlns="http://www.w3.org/2000/svg" viewBox="0 0 1564.61 217.21"><defs><style>.cls-1{font-size:188.69px;font-family:AllRoundGothic-Book, All Round Gothic;}.cls-1,.cls-11,.cls-2{fill:#fff;}.cls-2{font-size:43.7px;font-family:Montserrat-Regular, Montserrat;}.cls-3{letter-spacing:-0.02em;}.cls-4{letter-spacing:-0.01em;}.cls-5{letter-spacing:-0.01em;}.cls-6{letter-spacing:-0.01em;}.cls-7{letter-spacing:0em;}.cls-8{letter-spacing:0em;}.cls-9{letter-spacing:-0.01em;}.cls-10{fill:#97989a;}.cls-12{fill:#09314f;}.cls-13{fill:#48a2de;}</style></defs><g id="Layer_2" data-name="Layer 2"><g id="Layer_1-2" data-name="Layer 1"><text class="cls-1" transform="translate(502.5 156.05)">Accupraisal</text><text class="cls-2" transform="translate(995.02 205.76) scale(1.01 1)">S<tspan class="cls-3" x="26.88" y="0">e</tspan><tspan x="52.61" y="0">a</tspan><tspan class="cls-4" x="78.4" y="0">r</tspan><tspan class="cls-5" x="95.35" y="0">c</tspan><tspan x="119.61" y="0">h. </tspan><tspan class="cls-6" x="169.9" y="0">F</tspan><tspan x="197.13" y="0">i</tspan><tspan class="cls-7" x="208.88" y="0">n</tspan><tspan class="cls-8" x="238.56" y="0">d. Se</tspan><tspan class="cls-9" x="342.17" y="0">t</tspan><tspan x="359.3" y="0">tle D</tspan><tspan class="cls-3" x="462.74" y="0">o</tspan><tspan x="489.48" y="0">wn.</tspan></text><rect class="cls-10" y="14.97" width="164.13" height="164.13"/><path class="cls-11" d="M140,140.12l-.06-.06L93.32,97.5a1.87,1.87,0,0,0-2.67-2.62l-1.76,1.77L85.74,93.5a35.88,35.88,0,1,0-7.22,7.23l3.14,3.14-1.76,1.77a1.86,1.86,0,0,0,0,2.64,1.83,1.83,0,0,0,1.32.55,1.86,1.86,0,0,0,1.3-.53L125.08,155l.06.06A10.53,10.53,0,0,0,140,140.12ZM34.19,94.72A32.22,32.22,0,1,1,57,104.15,32.25,32.25,0,0,1,34.19,94.72Zm48.2,2.65c.32-.33.63-.65.94-1l2.91,2.91-1.93,1.93-2.9-2.91C81.74,98,82.07,97.69,82.39,97.37Zm55,55a6.77,6.77,0,0,1-9.56,0L85.18,105.65l5.5-5.49,46.73,42.64a6.77,6.77,0,0,1,0,9.56Z"/><path class="cls-11" d="M35.49,52.57a1.87,1.87,0,0,0,2.65,2.65,24.52,24.52,0,0,1,34.64,0,1.86,1.86,0,0,0,1.32.54,1.9,1.9,0,0,0,1.33-.54,1.88,1.88,0,0,0,0-2.65A28.28,28.28,0,0,0,35.49,52.57Z"/><rect class="cls-12" x="163.21" y="14.97" width="164.13" height="164.13"/><path class="cls-11" d="M269.48,157.53c-8.92,0-15.92-4.44-15.92-10.08,0-3.67,3-6.92,7.89-8.75a1.48,1.48,0,0,1,1,2.79c-3.67,1.33-5.94,3.62-5.94,6,0,3.87,5.94,7.12,13,7.12s13-3.25,13-7.12c0-2.36-2.31-4.66-6-6a1.48,1.48,0,1,1,1-2.78c5,1.8,8,5.07,8,8.77C285.4,153.09,278.4,157.53,269.48,157.53Z"/><path class="cls-11" d="M269.41,148.93a1.51,1.51,0,0,1-1.09-.47c-1.77-1.87-3.67-3.7-5.69-5.64-8.11-7.79-16.46-15.85-16.46-27.19a23.32,23.32,0,0,1,46.63,0c0,11.22-8.85,19.72-16.66,27.21-2,1.95-3.92,3.77-5.67,5.62a1.45,1.45,0,0,1-1.06.47Zm.07-53.65a20.4,20.4,0,0,0-20.36,20.35c0,10.06,7.92,17.67,15.58,25,1.58,1.53,3.2,3.08,4.71,4.64,1.48-1.51,3-3,4.68-4.61,7.74-7.44,15.75-15.13,15.75-25.09A20.39,20.39,0,0,0,269.48,95.28Z"/><path class="cls-11" d="M269.48,123.94a9.47,9.47,0,1,1,9.46-9.46A9.47,9.47,0,0,1,269.48,123.94Zm0-16a6.51,6.51,0,1,0,6.51,6.51A6.5,6.5,0,0,0,269.48,108Z"/><path class="cls-11" d="M214.84,112.46c-6.6,0-11.78-3.36-11.78-7.62,0-2.81,2.22-5.27,5.92-6.63a1.48,1.48,0,1,1,1,2.79c-2.44.88-4,2.36-4,3.84,0,2.19,3.62,4.66,8.82,4.66s8.83-2.47,8.83-4.66c0-1.5-1.56-3-4-3.87a1.48,1.48,0,0,1,1-2.78c3.74,1.35,6,3.84,6,6.65C226.65,109.1,221.47,112.46,214.84,112.46Z"/><path class="cls-11" d="M214.79,106.34a1.54,1.54,0,0,1-1.08-.46c-1.26-1.34-2.61-2.64-4.07-4-5.57-5.37-11.87-11.43-11.87-19.69a17.05,17.05,0,0,1,34.1,0c0,8.18-6.38,14.32-12,19.74-1.43,1.38-2.79,2.69-4,4A1.25,1.25,0,0,1,214.79,106.34Zm.05-38.29a14.1,14.1,0,0,0-14.09,14.09c0,7,5.57,12.37,11,17.57,1,1,2.07,2,3.08,3,1-1,2-2,3-3,5.47-5.25,11.11-10.67,11.11-17.62A14.07,14.07,0,0,0,214.84,68.05Z"/><path class="cls-11" d="M214.84,88.48A7.18,7.18,0,1,1,222,81.3,7.18,7.18,0,0,1,214.84,88.48Zm0-11.39a4.22,4.22,0,1,0,4.22,4.21A4.21,4.21,0,0,0,214.84,77.09Z"/><path class="cls-11" d="M251.37,73.05c-5.2,0-9.27-2.69-9.27-6.11,0-2.27,1.75-4.27,4.71-5.35a1.48,1.48,0,1,1,1,2.78c-1.68.62-2.76,1.63-2.76,2.57,0,1.48,2.68,3.15,6.31,3.15s6.31-1.67,6.31-3.15c0-1-1.11-2-2.81-2.59a1.48,1.48,0,0,1,1-2.79c3,1.06,4.75,3.08,4.75,5.38C260.63,70.36,256.57,73.05,251.37,73.05Z"/><path class="cls-11" d="M251.32,68.44h0a1.51,1.51,0,0,1-1.09-.47c-.93-1-2-2-3-3-4.27-4.09-9.07-8.75-9.07-15.13a13.24,13.24,0,1,1,26.47,0c0,6.33-4.88,11-9.2,15.15-1.08,1-2.09,2-3,3A1.32,1.32,0,0,1,251.32,68.44Zm.05-28.93a10.29,10.29,0,0,0-10.28,10.3c0,5.12,4.17,9.12,8.16,13,.69.66,1.4,1.35,2.07,2,.64-.67,1.33-1.31,2-2,4.07-3.92,8.28-8,8.28-13A10.29,10.29,0,0,0,251.37,39.51Z"/><path class="cls-11" d="M251.37,55a5.79,5.79,0,1,1,5.76-5.79A5.78,5.78,0,0,1,251.37,55Zm0-8.6a2.84,2.84,0,1,0,2.81,2.83A2.84,2.84,0,0,0,251.37,46.36Z"/><path class="cls-11" d="M224.73,104.57a1.4,1.4,0,0,1-1-.37,1.49,1.49,0,0,1-.15-2.1L251,70.58a1.49,1.49,0,0,1,2.25,2l-27.36,31.52A1.47,1.47,0,0,1,224.73,104.57Z"/><path class="cls-11" d="M255,148.93a1.4,1.4,0,0,1-1-.39l-40.19-36.48a1.48,1.48,0,1,1,2-2.19l40.2,36.47a1.49,1.49,0,0,1,.1,2.1A1.55,1.55,0,0,1,255,148.93Z"/><rect class="cls-13" x="327.21" y="14.97" width="164.13" height="164.13"/><path class="cls-11" d="M478.61,149.66H412.14a1.32,1.32,0,0,1-1.32-1.32V79.53a1.32,1.32,0,0,1,.42-1l33.23-31a1.32,1.32,0,0,1,1.81,0l33.24,31a1.35,1.35,0,0,1,.42,1v68.81A1.33,1.33,0,0,1,478.61,149.66ZM413.46,147h63.83V80.11L445.38,50.35,413.46,80.11V147Z"/><path class="cls-11" d="M402.14,90.18a1.3,1.3,0,0,1-.52-.1,1.32,1.32,0,0,1-.8-1.22v-8.3a1.32,1.32,0,0,1,.42-1l43.23-40.33a1.34,1.34,0,0,1,1.81,0l43.23,40.33a1.32,1.32,0,0,1,.42,1v8.3a1.32,1.32,0,0,1-2.22,1L445.38,50.34,403,89.83A1.3,1.3,0,0,1,402.14,90.18Zm1.33-9.05v4.69l41-38.25a1.32,1.32,0,0,1,1.81,0l41,38.25V81.13L445.38,42Z"/><path class="cls-11" d="M475.77,69.91a1.29,1.29,0,0,1-.9-.36l-7.42-6.92a1.35,1.35,0,0,1-.42-1V56a1.34,1.34,0,0,1,1.33-1.33h7.41A1.33,1.33,0,0,1,477.09,56V68.58a1.33,1.33,0,0,1-.79,1.22A1.4,1.4,0,0,1,475.77,69.91Zm-6.09-8.82,4.77,4.45V57.32h-4.77Z"/><path class="cls-11" d="M412.14,149.66H343.49a1.33,1.33,0,0,1-1.33-1.32V112.12a1.34,1.34,0,0,1,1.33-1.33h68.65a1.33,1.33,0,0,1,1.32,1.33v36.22A1.32,1.32,0,0,1,412.14,149.66ZM344.81,147h66V113.44h-66Z"/><path class="cls-11" d="M412.14,113.44H335.82a1.32,1.32,0,0,1-1.1-2.06l7.67-11.46a1.31,1.31,0,0,1,1.1-.59h68.65a1.32,1.32,0,0,1,1.32,1.33v11.46A1.32,1.32,0,0,1,412.14,113.44Zm-73.84-2.65h72.52V102H344.19Z"/><path class="cls-11" d="M412.14,102h-43.2a1.32,1.32,0,0,1-1.32-1.32V88.86a1.32,1.32,0,0,1,1.32-1.32h43.2a1.32,1.32,0,0,1,1.32,1.32v11.8A1.32,1.32,0,0,1,412.14,102Zm-41.87-2.65h40.55V90.18H370.27Z"/><path class="cls-11" d="M412.14,90.18H361.7a1.31,1.31,0,0,1-1.11-2l5.06-7.92a1.31,1.31,0,0,1,1.11-.61h35.38a1.33,1.33,0,0,1,1.33,1.32v4.88L409.74,80a1.3,1.3,0,0,1,.9-.35h1.5a1.32,1.32,0,0,1,1.32,1.32v7.92A1.32,1.32,0,0,1,412.14,90.18Zm-6.64-2.64h5.32v-5Zm-41.38,0h36.7V82.26H367.49Z"/><path class="cls-11" d="M438,93.78h-9a1.33,1.33,0,0,1-1.33-1.33V75.25A1.32,1.32,0,0,1,429,73.93h9a1.32,1.32,0,0,1,1.32,1.32v17.2A1.33,1.33,0,0,1,438,93.78Zm-7.66-2.65h6.34V76.57h-6.34Z"/><path class="cls-11" d="M461.72,93.78H438a1.33,1.33,0,0,1-1.32-1.33V75.25A1.32,1.32,0,0,1,438,73.93h23.7A1.32,1.32,0,0,1,463,75.25v17.2A1.33,1.33,0,0,1,461.72,93.78Zm-22.38-2.65h21.05V76.57H439.34Z"/><path class="cls-11" d="M368.24,149.66H355a1.32,1.32,0,0,1-1.32-1.32V122.42A1.32,1.32,0,0,1,355,121.1h13.22a1.32,1.32,0,0,1,1.32,1.32v25.92A1.32,1.32,0,0,1,368.24,149.66ZM356.35,147h10.57V123.74H356.35Z"/><path class="cls-11" d="M403.92,139.71H376.73a1.32,1.32,0,0,1-1.32-1.32v-16a1.32,1.32,0,0,1,1.32-1.32h27.19a1.33,1.33,0,0,1,1.33,1.32v16A1.33,1.33,0,0,1,403.92,139.71Zm-25.86-2.64H402.6V123.74H378.06Z"/><path class="cls-11" d="M403.92,129.36H380.6a1.33,1.33,0,1,1,0-2.65h23.32a1.33,1.33,0,1,1,0,2.65Z"/><path class="cls-11" d="M403.92,134H380.6a1.32,1.32,0,1,1,0-2.64h23.32a1.32,1.32,0,1,1,0,2.64Z"/><path class="cls-11" d="M438.39,123.23h-14a1.32,1.32,0,0,1-1.32-1.32v-14a1.32,1.32,0,0,1,1.32-1.33h14a1.32,1.32,0,0,1,1.32,1.33v14A1.32,1.32,0,0,1,438.39,123.23Zm-12.65-2.65h11.33V109.26H425.74Z"/><path class="cls-11" d="M452.36,123.23h-14a1.32,1.32,0,0,1-1.32-1.32v-14a1.32,1.32,0,0,1,1.32-1.33h14a1.33,1.33,0,0,1,1.33,1.33v14A1.33,1.33,0,0,1,452.36,123.23Zm-12.65-2.65H451V109.26H439.71Z"/><path class="cls-11" d="M466.35,123.23h-14a1.32,1.32,0,0,1-1.32-1.32v-14a1.32,1.32,0,0,1,1.32-1.33h14a1.32,1.32,0,0,1,1.32,1.33v14A1.32,1.32,0,0,1,466.35,123.23Zm-12.66-2.65H465V109.26H453.69Z"/><path class="cls-11" d="M438.39,137.2h-14a1.32,1.32,0,0,1-1.32-1.32v-14a1.33,1.33,0,0,1,1.32-1.33h14a1.33,1.33,0,0,1,1.32,1.33v14A1.32,1.32,0,0,1,438.39,137.2Zm-12.65-2.65h11.33V123.23H425.74Z"/><path class="cls-11" d="M452.36,137.2h-14a1.32,1.32,0,0,1-1.32-1.32v-14a1.33,1.33,0,0,1,1.32-1.33h14a1.34,1.34,0,0,1,1.33,1.33v14A1.33,1.33,0,0,1,452.36,137.2Zm-12.65-2.65H451V123.23H439.71Z"/><path class="cls-11" d="M466.35,137.2h-14a1.32,1.32,0,0,1-1.32-1.32v-14a1.33,1.33,0,0,1,1.32-1.33h14a1.33,1.33,0,0,1,1.32,1.33v14A1.32,1.32,0,0,1,466.35,137.2Zm-12.66-2.65H465V123.23H453.69Z"/><path class="cls-11" d="M485.24,149.66h-151a1.33,1.33,0,0,1,0-2.65h151a1.33,1.33,0,0,1,0,2.65Z"/><path class="cls-11" d="M473.3,155.17H398a1.32,1.32,0,1,1,0-2.64H473.3a1.32,1.32,0,1,1,0,2.64Z"/><path class="cls-11" d="M365.65,155H330a1.33,1.33,0,0,1,0-2.65h35.7a1.33,1.33,0,0,1,0,2.65Z"/><path class="cls-11" d="M392.22,63.73H374.89a4.44,4.44,0,0,1-1.3-8.68A4.45,4.45,0,0,1,377,51.32a4.42,4.42,0,0,1,5.33-2.54,5,5,0,0,1,8.35,2.54,5,5,0,0,1,5.08,5c0,.12,0,.24,0,.36a4.45,4.45,0,0,1-3.57,7.09ZM378,53.86a1.8,1.8,0,0,0-1.79,1.8c0,.11,0,.19,0,.32a1.31,1.31,0,0,1-.3,1.06,1.33,1.33,0,0,1-1,.46,1.79,1.79,0,0,0-1.81,1.78,1.77,1.77,0,0,0,1.78,1.8h17.33A1.8,1.8,0,0,0,393.47,58a1.34,1.34,0,0,1-.36-1.26,2,2,0,0,0,0-.46A2.32,2.32,0,0,0,390.84,54a2.74,2.74,0,0,0-.94.18,1.31,1.31,0,0,1-1.29-.22,1.33,1.33,0,0,1-.47-1.22,3.52,3.52,0,0,0,0-.37,2.33,2.33,0,0,0-4.3-1.24,1.32,1.32,0,0,1-1.8.43,1.78,1.78,0,0,0-2.72,1.23,1.32,1.32,0,0,1-1.3,1.11Z"/></g></g></svg>