<?xml version="1.0" encoding="utf-8"?>
<!-- Generator: Adobe Illustrator 19.2.1, SVG Export Plug-In . SVG Version: 6.00 Build 0)  -->
<svg version="1.1" id="layer" xmlns="http://www.w3.org/2000/svg" xmlns:xlink="http://www.w3.org/1999/xlink" x="0px" y="0px"
	 viewBox="0 0 652 652" style="enable-background:new 0 0 652 652;" xml:space="preserve">
<style type="text/css">
	.st0{fill-rule:evenodd;clip-rule:evenodd;fill:#EF8200;}
	.st1{fill:#005EA6;}
</style>
<path class="st0" d="M89.8,286.2l-27,29.8l-42.4-21.5v12.9l5.7,3v44.7l44.9,22.8l45-22.7v-43.1l5.7,2.8v-12.6L89.8,286.2z
	 M107.7,346.9l-36.6,18.2l-33.8-16.8v-32.7l28.1,14.2l27.1-29.7l15.1,7.7L107.7,346.9z"/>
<polygon class="st0" points="39.9,286.6 39.9,273.3 47.4,265 59.3,271 59.3,282.6 50.8,292.1 "/>
<polygon class="st0" points="86,358.5 86,337.3 97.2,331.7 97.2,352.9 "/>
<path class="st0" d="M438.8,351.5c0,3.3-2.7,5.9-5.9,5.9c-3.3,0-5.9-2.7-5.9-5.9c0-3.3,2.7-5.9,5.9-5.9
	C436.2,345.6,438.8,348.2,438.8,351.5"/>
<polygon class="st1" points="139,289.9 150.6,289.9 150.6,316.2 180.7,316.2 180.7,289.9 192.3,289.9 192.3,356.1 180.7,356.1 
	180.7,326.3 150.6,326.3 150.6,356.1 139,356.1 "/>
<path class="st1" d="M198,332.1c0-14.6,8.8-25.2,24.2-25.2c15.4,0,24.2,10.6,24.2,25.2c0,14.7-8.8,25.3-24.2,25.3
	C206.8,357.4,198,346.8,198,332.1 M235.8,332.1c0-8.2-4.2-16.9-13.6-16.9c-9.5,0-13.6,8.6-13.6,16.9c0,8.3,4.2,17,13.6,17
	C231.6,349,235.8,340.4,235.8,332.1"/>
<path class="st1" d="M252.4,308.2h10v6.7h0.3c3.2-4.7,7.1-8,14.7-8c5.8,0,11.3,2.5,13.4,8c3.5-4.9,8.1-8,15-8c10.1,0,16,4.4,16,16.1
	v33.1h-10.6v-28c0-7.6-0.5-12.9-8.7-12.9c-7.1,0-10.2,4.7-10.2,12.8v28.1h-10.6v-30.8c0-6.6-2-10.1-8.4-10.1
	c-5.5,0-10.5,4.4-10.5,12.4v28.4h-10.6V308.2z"/>
<path class="st1" d="M338.5,334.9c0,7.5,4.1,14.2,12.9,14.2c6.1,0,9.8-2.7,11.7-8h10c-2.3,10.5-11.2,16.3-21.7,16.3
	c-15,0-23.4-10.5-23.4-25.2c0-13.6,8.9-25.3,23.2-25.3c15.1,0,24.4,13.6,22.6,28H338.5z M363.1,327.9c-0.4-6.7-4.9-12.7-12-12.7
	c-7.3,0-12.3,5.6-12.6,12.7H363.1z"/>
<path class="st1" d="M386.9,340.7c0.6,6.1,5.2,8.3,10.8,8.3c4,0,10.9-0.8,10.7-6.3c-0.3-5.6-8-6.2-15.7-8
	c-7.8-1.7-15.4-4.4-15.4-14.2c0-10.5,11.3-13.7,20-13.7c9.8,0,18.7,4.1,20,14.7h-11c-0.9-5-5.1-6.4-9.7-6.4c-3.1,0-8.7,0.7-8.7,4.9
	c0,5.2,7.8,5.9,15.6,7.7c7.7,1.8,15.5,4.5,15.5,14c0,11.4-11.5,15.6-21.4,15.6c-12,0-21-5.4-21.2-16.7H386.9z"/>
<path class="st1" d="M481,323.3c-1.6-7.1-5.9-11.5-13.5-11.5c-11.2,0-16.8,10.2-16.8,20.4c0,10.2,5.6,20.4,16.8,20.4
	c7.2,0,13.2-5.7,13.9-13.6h5.8c-1.6,11.5-9.1,18.5-19.7,18.5c-14.6,0-22.6-11.6-22.6-25.3c0-13.7,8-25.3,22.6-25.3
	c10.2,0,18.1,5.5,19.4,16.4H481z"/>
<path class="st1" d="M535.4,332.2c0,13.7-8,25.3-22.6,25.3c-14.6,0-22.6-11.6-22.6-25.3c0-13.7,8-25.3,22.6-25.3
	C527.4,306.9,535.4,318.5,535.4,332.2 M496,332.2c0,10.2,5.6,20.4,16.8,20.4c11.2,0,16.8-10.2,16.8-20.4c0-10.2-5.6-20.4-16.8-20.4
	C501.5,311.8,496,322,496,332.2"/>
<path class="st1" d="M541.3,308.3h5.4v8.1h0.3c3.1-5.7,8.1-9.5,15.7-9.5c6.3,0,12,3.1,13.7,9.4c2.9-6.3,8.9-9.4,15.2-9.4
	c10.5,0,15.8,5.5,15.8,16.8v32.4h-5.8v-32.2c0-7.9-3-12.1-11.3-12.1c-10.1,0-13,8.3-13,17.2v27.1h-5.8v-32.4
	c0.1-6.5-2.6-11.9-10-11.9c-10.1,0-14.2,7.6-14.3,17.6v26.7h-5.8V308.3z"/>
<path class="st1" d="M620.4,307c0,3.2-2.6,5.8-5.9,5.8c-3.3,0-5.9-2.6-5.9-5.8c0-3.2,2.6-5.8,6-5.8
	C617.8,301.2,620.4,303.8,620.4,307 M610.1,307c0,2.6,1.9,4.6,4.5,4.6c2.5,0,4.4-2,4.4-4.6c0-2.6-1.9-4.6-4.5-4.6
	C612,302.4,610.1,304.5,610.1,307 M613.6,310h-1.3v-5.8c0.5-0.1,1.3-0.2,2.2-0.2c1.1,0,1.6,0.2,2,0.5c0.4,0.2,0.6,0.7,0.6,1.2
	c0,0.7-0.5,1.2-1.2,1.4v0.1c0.6,0.2,0.8,0.6,1,1.4c0.2,0.9,0.3,1.2,0.4,1.4h-1.4c-0.2-0.2-0.3-0.7-0.5-1.4c-0.1-0.6-0.5-0.9-1.2-0.9
	h-0.6V310z M613.7,306.8h0.6c0.7,0,1.3-0.2,1.3-0.8c0-0.5-0.4-0.9-1.2-0.9c-0.3,0-0.6,0-0.7,0.1V306.8z"/>
</svg>
